<svg width="22" height="24" viewBox="0 0 22 24" fill="none" xmlns="http://www.w3.org/2000/svg">
<path d="M21.0493 9.48092L11.7331 0.343017C11.6207 0.234327 11.4871 0.148057 11.3398 0.0891838C11.1926 0.0303108 11.0347 0 10.8751 0C10.7156 0 10.5577 0.0303108 10.4104 0.0891838C10.2632 0.148057 10.1296 0.234327 10.0172 0.343017L0.700973 9.49252C0.475542 9.71061 0.297504 9.96951 0.177194 10.2542C0.0568845 10.5388 -0.00329848 10.8436 0.000139398 11.1508V20.8685C-0.000796847 21.4622 0.23549 22.0335 0.660342 22.465C1.08519 22.8964 1.66626 23.1551 2.28389 23.1878H19.4664C20.084 23.1551 20.6651 22.8964 21.0899 22.465C21.5148 22.0335 21.7511 21.4622 21.7501 20.8685V11.1508C21.7511 10.528 21.4998 9.92922 21.0493 9.48092ZM8.45847 20.8685V13.9107H13.2918V20.8685H8.45847ZM19.3335 20.8685H15.7085V12.7511C15.7085 12.4435 15.5812 12.1486 15.3546 11.9311C15.128 11.7136 14.8206 11.5915 14.5001 11.5915H7.25014C6.92967 11.5915 6.62233 11.7136 6.39572 11.9311C6.16911 12.1486 6.04181 12.4435 6.04181 12.7511V20.8685H2.41681V11.1044L10.8751 2.81304L19.3335 11.1508V20.8685Z" fill="black"/>
</svg>
