<svg width="24" height="24" viewBox="0 0 24 24" fill="none" xmlns="http://www.w3.org/2000/svg">
<g clip-path="url(#clip0_2_44)">
<path d="M19.9431 4.26515C18.0288 2.41606 15.5023 1.26586 12.7991 1.01285C10.0959 0.759842 7.38546 1.41988 5.135 2.87917C2.88454 4.33847 1.23513 6.50557 0.47111 9.00686C-0.292907 11.5082 -0.123644 14.1869 0.949718 16.5813C1.06159 16.8038 1.0983 17.0543 1.05472 17.2978L0.028051 22.0339C-0.0115035 22.2155 -0.00342634 22.4037 0.0515565 22.5815C0.10654 22.7594 0.206705 22.9213 0.343051 23.0528C0.454823 23.1593 0.587904 23.243 0.734274 23.2988C0.880644 23.3546 1.03727 23.3813 1.19472 23.3775H1.42805L6.42138 22.4146C6.67517 22.3853 6.93252 22.4201 7.16805 22.5154C9.66297 23.5455 12.4542 23.7079 15.0605 22.9747C17.6669 22.2415 19.925 20.6585 21.4456 18.4988C22.9661 16.339 23.6539 13.7378 23.3903 11.1436C23.1266 8.54932 21.9281 6.12464 20.0014 4.28754L19.9431 4.26515ZM20.9114 13.6254C20.6833 14.9622 20.1422 16.232 19.3289 17.3391C18.5155 18.4463 17.4511 19.362 16.2157 20.0173C14.9803 20.6726 13.6062 21.0505 12.1966 21.1224C10.7871 21.1944 9.37892 20.9586 8.07805 20.4328C7.61668 20.2445 7.12107 20.1456 6.61972 20.1417C6.40071 20.1432 6.1822 20.1619 5.96638 20.1977L2.67638 20.8359L3.34138 17.6785C3.47383 16.9947 3.38845 16.2885 3.09638 15.6519C2.54851 14.4035 2.30283 13.0521 2.37783 11.6993C2.45283 10.3466 2.84656 9.02784 3.52938 7.84225C4.21221 6.65666 5.16635 5.63515 6.32 4.85459C7.47364 4.07403 8.79674 3.55475 10.1897 3.33584C11.6519 3.10555 13.1501 3.21265 14.5606 3.64829C15.9711 4.08393 17.2532 4.83559 18.3009 5.84109C19.3487 6.84659 20.1319 8.07704 20.5858 9.43066C21.0397 10.7843 21.1513 12.2222 20.9114 13.6254Z" fill="black"/>
<path d="M12.1667 13.2393C12.811 13.2393 13.3333 12.738 13.3333 12.1196C13.3333 11.5013 12.811 11 12.1667 11C11.5223 11 11 11.5013 11 12.1196C11 12.738 11.5223 13.2393 12.1667 13.2393Z" fill="black"/>
<path d="M7.16667 13.2393C7.811 13.2393 8.33334 12.738 8.33334 12.1196C8.33334 11.5013 7.811 11 7.16667 11C6.52233 11 6 11.5013 6 12.1196C6 12.738 6.52233 13.2393 7.16667 13.2393Z" fill="black"/>
<path d="M17.1667 13.2393C17.811 13.2393 18.3333 12.738 18.3333 12.1196C18.3333 11.5013 17.811 11 17.1667 11C16.5223 11 16 11.5013 16 12.1196C16 12.738 16.5223 13.2393 17.1667 13.2393Z" fill="black"/>
</g>
<defs>
<clipPath id="clip0_2_44">
<rect width="24" height="24" fill="white"/>
</clipPath>
</defs>
</svg>
