<svg width="14" height="14" viewBox="0 0 14 14" fill="none" xmlns="http://www.w3.org/2000/svg">
<path d="M10.9515 5.18751C10.5948 5.18851 10.2471 5.29983 9.95608 5.50622C9.66507 5.7126 9.44503 6.00394 9.32611 6.3403H1.72923C1.57636 6.3403 1.42975 6.40102 1.32165 6.50912C1.21356 6.61721 1.15283 6.76382 1.15283 6.91669C1.15283 7.06956 1.21356 7.21617 1.32165 7.32426C1.42975 7.43236 1.57636 7.49309 1.72923 7.49309H9.32611C9.43185 7.79217 9.61783 8.05639 9.86368 8.25685C10.1095 8.45731 10.4058 8.58628 10.72 8.62964C11.0343 8.673 11.3544 8.62908 11.6454 8.50269C11.9363 8.3763 12.1869 8.17231 12.3697 7.91304C12.5525 7.65378 12.6604 7.34923 12.6817 7.03272C12.703 6.71621 12.6368 6.39995 12.4904 6.11854C12.3439 5.83714 12.1229 5.60143 11.8515 5.43722C11.5801 5.273 11.2688 5.18662 10.9515 5.18751ZM10.9515 7.49309C10.8375 7.49309 10.7261 7.45928 10.6313 7.39595C10.5365 7.33261 10.4627 7.24259 10.419 7.13727C10.3754 7.03195 10.364 6.91605 10.3862 6.80424C10.4085 6.69243 10.4634 6.58973 10.544 6.50912C10.6246 6.42851 10.7273 6.37361 10.8391 6.35137C10.9509 6.32913 11.0668 6.34055 11.1721 6.38417C11.2774 6.4278 11.3675 6.50168 11.4308 6.59646C11.4941 6.69125 11.5279 6.80269 11.5279 6.91669C11.5279 7.06956 11.4672 7.21617 11.3591 7.32426C11.251 7.43236 11.1044 7.49309 10.9515 7.49309Z" fill="#FDFDFD"/>
<path d="M1.72923 4.0347H2.40937C2.53053 4.36852 2.75154 4.65694 3.04235 4.86076C3.33316 5.06459 3.67968 5.17393 4.03481 5.17393C4.38994 5.17393 4.73645 5.06459 5.02726 4.86076C5.31808 4.65694 5.53908 4.36852 5.66024 4.0347H12.1043C12.2572 4.0347 12.4038 3.97397 12.5119 3.86587C12.62 3.75778 12.6807 3.61117 12.6807 3.4583C12.6807 3.30543 12.62 3.15882 12.5119 3.05073C12.4038 2.94263 12.2572 2.88191 12.1043 2.88191H5.66024C5.53908 2.54809 5.31808 2.25967 5.02726 2.05584C4.73645 1.85202 4.38994 1.74268 4.03481 1.74268C3.67968 1.74268 3.33316 1.85202 3.04235 2.05584C2.75154 2.25967 2.53053 2.54809 2.40937 2.88191H1.72923C1.57636 2.88191 1.42975 2.94263 1.32165 3.05073C1.21356 3.15882 1.15283 3.30543 1.15283 3.4583C1.15283 3.61117 1.21356 3.75778 1.32165 3.86587C1.42975 3.97397 1.57636 4.0347 1.72923 4.0347ZM4.03481 2.88191C4.14881 2.88191 4.26025 2.91571 4.35503 2.97905C4.44982 3.04238 4.5237 3.1324 4.56733 3.23773C4.61095 3.34305 4.62237 3.45894 4.60013 3.57075C4.57789 3.68256 4.52299 3.78526 4.44238 3.86587C4.36177 3.94649 4.25907 4.00138 4.14726 4.02362C4.03545 4.04586 3.91955 4.03445 3.81423 3.99082C3.70891 3.9472 3.61889 3.87332 3.55555 3.77853C3.49222 3.68374 3.45841 3.5723 3.45841 3.4583C3.45841 3.30543 3.51914 3.15882 3.62723 3.05073C3.73533 2.94263 3.88194 2.88191 4.03481 2.88191Z" fill="#FDFDFD"/>
<path d="M12.1043 9.7989H7.96582C7.84466 9.46508 7.62366 9.17666 7.33284 8.97283C7.04203 8.76901 6.69552 8.65967 6.34039 8.65967C5.98526 8.65967 5.63874 8.76901 5.34793 8.97283C5.05712 9.17666 4.83611 9.46508 4.71495 9.7989H1.72923C1.57636 9.7989 1.42975 9.85963 1.32165 9.96772C1.21356 10.0758 1.15283 10.2224 1.15283 10.3753C1.15283 10.5282 1.21356 10.6748 1.32165 10.7829C1.42975 10.891 1.57636 10.9517 1.72923 10.9517H4.71495C4.83611 11.2855 5.05712 11.5739 5.34793 11.7778C5.63874 11.9816 5.98526 12.0909 6.34039 12.0909C6.69552 12.0909 7.04203 11.9816 7.33284 11.7778C7.62366 11.5739 7.84466 11.2855 7.96582 10.9517H12.1043C12.2572 10.9517 12.4038 10.891 12.5119 10.7829C12.62 10.6748 12.6807 10.5282 12.6807 10.3753C12.6807 10.2224 12.62 10.0758 12.5119 9.96772C12.4038 9.85963 12.2572 9.7989 12.1043 9.7989ZM6.34039 10.9517C6.22639 10.9517 6.11495 10.9179 6.02016 10.8545C5.92537 10.7912 5.85149 10.7012 5.80787 10.5959C5.76424 10.4905 5.75283 10.3747 5.77507 10.2628C5.79731 10.151 5.8522 10.0483 5.93281 9.96772C6.01342 9.88711 6.11613 9.83221 6.22794 9.80997C6.33975 9.78773 6.45564 9.79915 6.56096 9.84277C6.66629 9.8864 6.75631 9.96028 6.81964 10.0551C6.88298 10.1499 6.91678 10.2613 6.91678 10.3753C6.91678 10.5282 6.85605 10.6748 6.74796 10.7829C6.63986 10.891 6.49326 10.9517 6.34039 10.9517Z" fill="#FDFDFD"/>
</svg>
