<svg width="14" height="71" viewBox="0 0 14 71" fill="none" xmlns="http://www.w3.org/2000/svg">
<circle cx="6.5" cy="6.5" r="6.5" fill="#C9C9C9"/>
<line x1="6" y1="17" x2="6" y2="53" stroke="#C9C9C9" stroke-width="2"/>
<g clip-path="url(#clip0_2_233)">
<path d="M5.33825 63.9999L0.138465 69.1994C-0.0461454 69.384 -0.0461454 69.6828 0.138465 69.8674L1.13222 70.8615C1.22073 70.95 1.34083 70.9998 1.4662 70.9998C1.59159 70.9998 1.7117 70.95 1.8002 70.8615L6.99999 65.6617L12.1998 70.8615C12.2883 70.95 12.4084 70.9998 12.5338 70.9998C12.6591 70.9998 12.7793 70.95 12.8678 70.8615L13.8615 69.8674C14.0462 69.6828 14.0462 69.384 13.8615 69.1994L8.66173 63.9999L13.861 58.801C14.0456 58.6164 14.0456 58.3176 13.861 58.133L12.8672 57.1389C12.7787 57.0505 12.6586 57.0007 12.5332 57.0007C12.4078 57.0007 12.2877 57.0505 12.1992 57.1389L7.00002 62.3382L1.80084 57.1389C1.71233 57.0505 1.59223 57.0007 1.46684 57.0007C1.34141 57.0007 1.22131 57.0505 1.13286 57.1389L0.139042 58.133C-0.0455084 58.3176 -0.0455084 58.6164 0.139042 58.801L5.33825 63.9999Z" fill="#C9C9C9"/>
</g>
<defs>
<clipPath id="clip0_2_233">
<rect width="14" height="14" fill="white" transform="matrix(-1 0 0 -1 14 71)"/>
</clipPath>
</defs>
</svg>
