<svg width="24" height="24" viewBox="0 0 24 24" fill="none" xmlns="http://www.w3.org/2000/svg">
<g clip-path="url(#clip0_2_30)">
<path d="M23.6133 21.8046L19.08 17.4667C20.5427 15.6784 21.3363 13.4701 21.3333 11.1967C21.3333 9.17209 20.7077 7.19291 19.5357 5.50949C18.3636 3.82606 16.6977 2.51399 14.7486 1.73919C12.7996 0.964397 10.6548 0.761675 8.58571 1.15666C6.51658 1.55165 4.61596 2.52661 3.1242 3.95824C1.63244 5.38988 0.616538 7.2139 0.204962 9.19963C-0.206614 11.1854 0.00462168 13.2436 0.811956 15.1142C1.61929 16.9847 2.98646 18.5834 4.74059 19.7083C6.49471 20.8331 8.557 21.4335 10.6667 21.4335C13.0355 21.4363 15.3366 20.6747 17.2 19.271L21.72 23.6216C21.844 23.7415 21.9914 23.8367 22.1539 23.9017C22.3164 23.9666 22.4907 24.0001 22.6667 24.0001C22.8427 24.0001 23.017 23.9666 23.1794 23.9017C23.3419 23.8367 23.4894 23.7415 23.6133 23.6216C23.7383 23.5026 23.8375 23.3611 23.9052 23.2052C23.9729 23.0493 24.0077 22.882 24.0077 22.7131C24.0077 22.5442 23.9729 22.3769 23.9052 22.221C23.8375 22.065 23.7383 21.9235 23.6133 21.8046ZM2.66667 11.1967C2.66667 9.67825 3.13586 8.19387 4.01491 6.9313C4.89397 5.66873 6.1434 4.68467 7.6052 4.10358C9.06701 3.52248 10.6755 3.37044 12.2274 3.66668C13.7792 3.96292 15.2047 4.69414 16.3235 5.76786C17.4423 6.84159 18.2043 8.2096 18.513 9.69891C18.8216 11.1882 18.6632 12.7319 18.0577 14.1348C17.4522 15.5377 16.4268 16.7368 15.1112 17.5804C13.7956 18.424 12.2489 18.8743 10.6667 18.8743C8.54494 18.8743 6.51011 18.0654 5.00982 16.6256C3.50953 15.1858 2.66667 13.2329 2.66667 11.1967Z" fill="black"/>
</g>
<defs>
<clipPath id="clip0_2_30">
<rect width="24" height="24" fill="white"/>
</clipPath>
</defs>
</svg>
