<svg width="72" height="72" viewBox="0 0 72 72" fill="none" xmlns="http://www.w3.org/2000/svg">
<rect width="72" height="72" rx="8" fill="#3D3D3D"/>
<path d="M19.8462 56.7692H52.1539C54.7029 56.7692 56.7693 54.7028 56.7693 52.1538V19.8461C56.7693 17.2971 54.7029 15.2307 52.1539 15.2307H19.8462C17.2972 15.2307 15.2308 17.2971 15.2308 19.8461V52.1538C15.2308 54.7028 17.2972 56.7692 19.8462 56.7692ZM19.8462 56.7692L45.2308 31.3846L56.7693 42.9231M31.3847 27.9231C31.3847 29.8348 29.8349 31.3846 27.9231 31.3846C26.0114 31.3846 24.4616 29.8348 24.4616 27.9231C24.4616 26.0113 26.0114 24.4615 27.9231 24.4615C29.8349 24.4615 31.3847 26.0113 31.3847 27.9231Z" stroke="#C3C3C3" stroke-width="2.76923" stroke-linecap="round" stroke-linejoin="round"/>
</svg>
