<svg width="197" height="29" viewBox="0 0 197 29" fill="none" xmlns="http://www.w3.org/2000/svg">
<path d="M22.068 25.6812C21.7718 25.9242 21.2172 26.2521 20.4042 26.6651C19.6157 27.0791 18.6424 27.4441 17.4842 27.7601C16.326 28.0761 15.0442 28.2221 13.6399 28.1971C11.4961 28.1491 9.57398 27.7721 7.87346 27.0671C6.19765 26.3371 4.7684 25.3521 3.58559 24.1121C2.4273 22.8721 1.54017 21.4491 0.924103 19.8441C0.308035 18.2391 0 16.5251 0 14.7011C0 12.6581 0.308035 10.7851 0.924103 9.08313C1.56479 7.38113 2.46427 5.90913 3.62246 4.66913C4.80537 3.42913 6.21001 2.46811 7.83648 1.78711C9.46265 1.10711 11.2622 0.766113 13.2334 0.766113C15.0565 0.766113 16.6712 1.00909 18.0756 1.49609C19.4799 1.98209 20.6258 2.50515 21.5134 3.06415L19.4064 8.06213C18.7905 7.60013 17.9642 7.1251 16.9296 6.6391C15.9195 6.1281 14.7491 5.87311 13.4183 5.87311C12.3826 5.87311 11.3848 6.09215 10.4237 6.53015C9.48717 6.94315 8.64967 7.53914 7.91033 8.31714C7.1957 9.09514 6.62896 10.0071 6.21001 11.0531C5.79106 12.0741 5.58158 13.1931 5.58158 14.4091C5.58158 15.6981 5.76644 16.8771 6.13607 17.9471C6.5304 19.0171 7.08488 19.9411 7.79951 20.7191C8.51414 21.4731 9.36461 22.0571 10.3502 22.4701C11.3603 22.8841 12.494 23.0911 13.7512 23.0911C15.2046 23.0911 16.4496 22.8601 17.4842 22.3971C18.5188 21.9351 19.3073 21.4491 19.8496 20.9381L22.068 25.6812Z" fill="white"/>
<path d="M25.7744 14.5181C25.7744 12.6701 26.1308 10.9191 26.8457 9.26514C27.5607 7.61214 28.5463 6.15312 29.8035 4.88812C31.0843 3.59912 32.5632 2.59011 34.2392 1.86011C35.9142 1.13111 37.7137 0.766113 39.6359 0.766113C41.5335 0.766113 43.3198 1.13111 44.9958 1.86011C46.6708 2.59011 48.1497 3.59912 49.4315 4.88812C50.7368 6.15312 51.7479 7.61214 52.4618 9.26514C53.2012 10.9191 53.571 12.6701 53.571 14.5181C53.571 16.4151 53.2012 18.1901 52.4618 19.8441C51.7479 21.4981 50.7368 22.9571 49.4315 24.2211C48.1497 25.4621 46.6708 26.4341 44.9958 27.1401C43.3198 27.8451 41.5335 28.1971 39.6359 28.1971C37.7137 28.1971 35.9142 27.8451 34.2392 27.1401C32.5632 26.4341 31.0843 25.4621 29.8035 24.2211C28.5463 22.9571 27.5607 21.4981 26.8457 19.8441C26.1308 18.1901 25.7744 16.4151 25.7744 14.5181ZM31.3182 14.5181C31.3182 15.7101 31.5285 16.8291 31.9473 17.8741C32.3905 18.8961 32.9942 19.8081 33.7581 20.6101C34.5466 21.3881 35.4464 21.9961 36.4565 22.4341C37.4921 22.8721 38.6125 23.0911 39.8207 23.0911C40.9789 23.0911 42.0503 22.8721 43.0359 22.4341C44.047 21.9961 44.9213 21.3881 45.6607 20.6101C46.4002 19.8081 46.9793 18.8961 47.398 17.8741C47.8168 16.8291 48.0261 15.7101 48.0261 14.5181C48.0261 13.3021 47.8045 12.1711 47.3612 11.1261C46.9425 10.0801 46.3511 9.16814 45.5872 8.39014C44.8477 7.58714 43.9725 6.96715 42.9624 6.53015C41.9523 6.09215 40.8554 5.87311 39.6726 5.87311C38.4899 5.87311 37.393 6.09215 36.3829 6.53015C35.3728 6.96715 34.4853 7.58714 33.7213 8.39014C32.9574 9.16814 32.366 10.0801 31.9473 11.1261C31.5285 12.1711 31.3182 13.3021 31.3182 14.5181Z" fill="white"/>
<path d="M67.1578 1.05811C68.8583 1.05811 70.374 1.27711 71.7048 1.71411C73.0356 2.12811 74.1437 2.73615 75.0312 3.53815C75.9433 4.31715 76.6327 5.26509 77.1015 6.38409C77.5693 7.47809 77.8042 8.71813 77.8042 10.1041C77.8042 11.1991 77.6316 12.2931 77.2863 13.3871C76.9656 14.4821 76.4233 15.4792 75.6594 16.3792C74.9209 17.2782 73.9343 18.0081 72.7026 18.5671C71.4709 19.1021 69.943 19.3701 68.1189 19.3701H64.2746V27.9061H58.9146V1.05811H67.1578ZM68.0821 14.2631C68.8951 14.2631 69.5732 14.1291 70.1156 13.8621C70.6569 13.5941 71.0766 13.2541 71.3718 12.8401C71.6925 12.4271 71.9141 12.0011 72.0377 11.5641C72.1848 11.1011 72.2593 10.6761 72.2593 10.2871C72.2593 9.99511 72.2093 9.63014 72.1113 9.19214C72.0377 8.73014 71.8651 8.26815 71.5934 7.80615C71.3228 7.34415 70.904 6.9551 70.3372 6.6391C69.7949 6.3231 69.0554 6.1651 68.1189 6.1651H64.2746V14.2631H68.0821ZM73.1091 17.5461L79.8366 27.9061H73.5901L66.7145 17.6921L73.1091 17.5461Z" fill="white"/>
<path d="M108.615 29L87.9888 10.615L89.578 11.491L89.6893 27.906H84.2559V0H84.4775L104.66 18.312L103.477 17.801L103.366 1.05798H108.763V29H108.615Z" fill="white"/>
<path d="M114.105 14.5181C114.105 12.6701 114.463 10.9191 115.178 9.26514C115.893 7.61214 116.878 6.15312 118.135 4.88812C119.416 3.59912 120.895 2.59011 122.57 1.86011C124.246 1.13111 126.046 0.766113 127.968 0.766113C129.865 0.766113 131.652 1.13111 133.327 1.86011C135.003 2.59011 136.482 3.59912 137.763 4.88812C139.069 6.15312 140.08 7.61214 140.794 9.26514C141.533 10.9191 141.903 12.6701 141.903 14.5181C141.903 16.4151 141.533 18.1901 140.794 19.8441C140.08 21.4981 139.069 22.9571 137.763 24.2211C136.482 25.4621 135.003 26.4341 133.327 27.1401C131.652 27.8451 129.865 28.1971 127.968 28.1971C126.046 28.1971 124.246 27.8451 122.57 27.1401C120.895 26.4341 119.416 25.4621 118.135 24.2211C116.878 22.9571 115.893 21.4981 115.178 19.8441C114.463 18.1901 114.105 16.4151 114.105 14.5181ZM119.65 14.5181C119.65 15.7101 119.86 16.8291 120.279 17.8741C120.723 18.8961 121.326 19.8081 122.09 20.6101C122.879 21.3881 123.778 21.9961 124.789 22.4341C125.823 22.8721 126.945 23.0911 128.152 23.0911C129.311 23.0911 130.382 22.8721 131.368 22.4341C132.378 21.9961 133.253 21.3881 133.993 20.6101C134.732 19.8081 135.311 18.8961 135.73 17.8741C136.149 16.8291 136.358 15.7101 136.358 14.5181C136.358 13.3021 136.137 12.1711 135.693 11.1261C135.275 10.0801 134.682 9.16814 133.918 8.39014C133.18 7.58714 132.305 6.96715 131.294 6.53015C130.284 6.09215 129.187 5.87311 128.005 5.87311C126.822 5.87311 125.725 6.09215 124.715 6.53015C123.704 6.96715 122.817 7.58714 122.053 8.39014C121.289 9.16814 120.698 10.0801 120.279 11.1261C119.86 12.1711 119.65 13.3021 119.65 14.5181Z" fill="white"/>
<path d="M155.49 1.05811C157.19 1.05811 158.706 1.27711 160.037 1.71411C161.368 2.12811 162.476 2.73615 163.363 3.53815C164.275 4.31715 164.965 5.26509 165.434 6.38409C165.901 7.47809 166.135 8.71813 166.135 10.1041C166.135 11.1991 165.963 12.2931 165.618 13.3871C165.298 14.4821 164.755 15.4792 163.991 16.3792C163.252 17.2782 162.266 18.0081 161.035 18.5671C159.802 19.1021 158.274 19.3701 156.451 19.3701H152.607V27.9061H147.247V1.05811H155.49ZM156.414 14.2631C157.227 14.2631 157.905 14.1291 158.447 13.8621C158.989 13.5941 159.408 13.2541 159.704 12.8401C160.025 12.4271 160.246 12.0011 160.369 11.5641C160.517 11.1011 160.59 10.6761 160.59 10.2871C160.59 9.99511 160.541 9.63014 160.443 9.19214C160.369 8.73014 160.196 8.26815 159.925 7.80615C159.655 7.34415 159.235 6.9551 158.668 6.6391C158.127 6.3231 157.387 6.1651 156.451 6.1651H152.607V14.2631H156.414ZM161.441 17.5461L168.169 27.9061H161.921L155.047 17.6921L161.441 17.5461Z" fill="white"/>
<path d="M171.256 27.906L183.528 0H183.824L196.096 27.906H189.886L182.05 8.28101L185.931 5.65399L176.542 27.906H171.256Z" fill="white"/>
</svg>
